# Blender v2.78 (sub 0) OBJ File: 'roadpaint.blend'
# www.blender.org
mtllib roadpaint.mtl
o Cube
v 2.930374 -0.380648 1.000000
v 2.930374 -0.425898 1.000000
v 2.930374 -0.380648 -1.000000
v 2.930374 -0.425898 -1.000000
v 3.071912 -0.380648 1.000000
v 3.071912 -0.425898 1.000000
v 3.071912 -0.380648 -1.000000
v 3.071912 -0.425898 -1.000000
v -3.071898 -0.380648 1.000000
v -3.071898 -0.425898 1.000000
v -3.071898 -0.380648 -1.000000
v -3.071898 -0.425898 -1.000000
v -2.930361 -0.380648 1.000000
v -2.930361 -0.425898 1.000000
v -2.930361 -0.380648 -1.000000
v -2.930361 -0.425898 -1.000000
v -1.071142 -0.380648 1.000000
v -1.071142 -0.425898 1.000000
v -1.071142 -0.380648 -1.000000
v -1.071142 -0.425898 -1.000000
v -0.929605 -0.380648 1.000000
v -0.929605 -0.425898 1.000000
v -0.929605 -0.380648 -1.000000
v -0.929605 -0.425898 -1.000000
v 0.929614 -0.380648 1.000000
v 0.929614 -0.425898 1.000000
v 0.929614 -0.380648 -1.000000
v 0.929614 -0.425898 -1.000000
v 1.071151 -0.380648 1.000000
v 1.071151 -0.425898 1.000000
v 1.071151 -0.380648 -1.000000
v 1.071151 -0.425898 -1.000000
vt 0.3995 0.0005
vt 0.2005 0.1995
vt 0.3995 0.1995
vt 0.7995 0.0005
vt 0.6005 0.1995
vt 0.7995 0.1995
vt 0.8005 0.2005
vt 0.9995 0.3995
vt 0.8005 0.3995
vt 0.0005 0.0005
vt 0.1995 0.1995
vt 0.0005 0.1995
vt 0.0005 0.6005
vt 0.1995 0.7995
vt 0.1995 0.6005
vt 0.9995 0.4005
vt 0.8005 0.5995
vt 0.8005 0.4005
vt 0.5995 0.0005
vt 0.4005 0.1995
vt 0.5995 0.1995
vt 0.5995 0.2005
vt 0.4005 0.3995
vt 0.5995 0.3995
vt 0.8005 0.0005
vt 0.9995 0.1995
vt 0.8005 0.1995
vt 0.6005 0.5995
vt 0.7995 0.4005
vt 0.7995 0.5995
vt 0.6005 0.2005
vt 0.7995 0.3995
vt 0.7995 0.2005
vt 0.3995 0.2005
vt 0.2005 0.3995
vt 0.2005 0.2005
vt 0.3995 0.4005
vt 0.2005 0.5995
vt 0.3995 0.5995
vt 0.6005 0.8005
vt 0.7995 0.9995
vt 0.7995 0.8005
vt 0.4005 0.8005
vt 0.5995 0.9995
vt 0.4005 0.9995
vt 0.4005 0.7995
vt 0.5995 0.6005
vt 0.5995 0.7995
vt 0.0005 0.4005
vt 0.1995 0.5995
vt 0.1995 0.4005
vt 0.7995 0.6005
vt 0.6005 0.7995
vt 0.6005 0.6005
vt 0.1995 0.2005
vt 0.0005 0.3995
vt 0.1995 0.3995
vt 0.3995 0.8005
vt 0.2005 0.9995
vt 0.3995 0.9995
vt 0.0005 0.8005
vt 0.1995 0.9995
vt 0.0005 0.9995
vt 0.2005 0.6005
vt 0.3995 0.7995
vt 0.2005 0.7995
vt 0.4005 0.4005
vt 0.5995 0.5995
vt 0.5995 0.4005
vt 0.9995 0.6005
vt 0.8005 0.7995
vt 0.8005 0.6005
vt 0.2005 0.0005
vt 0.6005 0.0005
vt 0.9995 0.2005
vt 0.1995 0.0005
vt 0.0005 0.7995
vt 0.9995 0.5995
vt 0.4005 0.0005
vt 0.4005 0.2005
vt 0.9995 0.0005
vt 0.6005 0.4005
vt 0.6005 0.3995
vt 0.3995 0.3995
vt 0.2005 0.4005
vt 0.6005 0.9995
vt 0.5995 0.8005
vt 0.4005 0.6005
vt 0.0005 0.5995
vt 0.7995 0.7995
vt 0.0005 0.2005
vt 0.2005 0.8005
vt 0.1995 0.8005
vt 0.3995 0.6005
vt 0.4005 0.5995
vt 0.9995 0.7995
vn 1.0000 0.0000 0.0000
vn 0.0000 0.0000 1.0000
vn -1.0000 0.0000 0.0000
vn 0.0000 0.0000 -1.0000
vn 0.0000 -1.0000 0.0000
vn 0.0000 1.0000 0.0000
usemtl Material.002
s off
f 2/1/1 3/2/1 1/3/1
f 4/4/2 7/5/2 3/6/2
f 8/7/3 5/8/3 7/9/3
f 6/10/4 1/11/4 5/12/4
f 7/13/5 1/14/5 3/15/5
f 4/16/6 6/17/6 8/18/6
f 10/19/1 11/20/1 9/21/1
f 12/22/2 15/23/2 11/24/2
f 16/25/3 13/26/3 15/27/3
f 14/28/4 9/29/4 13/30/4
f 15/31/5 9/32/5 11/33/5
f 12/34/6 14/35/6 16/36/6
f 18/37/1 19/38/1 17/39/1
f 20/40/2 23/41/2 19/42/2
f 24/43/3 21/44/3 23/45/3
f 22/46/4 17/47/4 21/48/4
f 23/49/5 17/50/5 19/51/5
f 20/52/6 22/53/6 24/54/6
f 26/55/1 27/56/1 25/57/1
f 28/58/2 31/59/2 27/60/2
f 32/61/3 29/62/3 31/63/3
f 30/64/4 25/65/4 29/66/4
f 31/67/5 25/68/5 27/69/5
f 28/70/6 30/71/6 32/72/6
f 2/1/1 4/73/1 3/2/1
f 4/4/2 8/74/2 7/5/2
f 8/7/3 6/75/3 5/8/3
f 6/10/4 2/76/4 1/11/4
f 7/13/5 5/77/5 1/14/5
f 4/16/6 2/78/6 6/17/6
f 10/19/1 12/79/1 11/20/1
f 12/22/2 16/80/2 15/23/2
f 16/25/3 14/81/3 13/26/3
f 14/28/4 10/82/4 9/29/4
f 15/31/5 13/83/5 9/32/5
f 12/34/6 10/84/6 14/35/6
f 18/37/1 20/85/1 19/38/1
f 20/40/2 24/86/2 23/41/2
f 24/43/3 22/87/3 21/44/3
f 22/46/4 18/88/4 17/47/4
f 23/49/5 21/89/5 17/50/5
f 20/52/6 18/90/6 22/53/6
f 26/55/1 28/91/1 27/56/1
f 28/58/2 32/92/2 31/59/2
f 32/61/3 30/93/3 29/62/3
f 30/64/4 26/94/4 25/65/4
f 31/67/5 29/95/5 25/68/5
f 28/70/6 26/96/6 30/71/6
